<svg width="135" height="40" viewBox="0 0 135 40" fill="none" xmlns="http://www.w3.org/2000/svg">
<rect width="40" height="40" rx="20" fill="url(#paint0_linear_7474_50326)"/>
<path d="M11.694 29V12.61H14.114L20.274 21.146H19.064L25.114 12.61H27.534V29H24.96V15.668L25.928 15.932L19.746 24.38H19.482L13.432 15.932L14.29 15.668V29H11.694Z" fill="white"/>
<path d="M47.296 27.5V14.09H49.636L54.658 20.912H53.542L58.456 14.09H60.796V27.5H58.33V16.88L59.284 17.114L54.19 23.9H53.902L48.934 17.114L49.744 16.88V27.5H47.296ZM61.2644 27.5L65.8904 14.09H69.0584L73.6844 27.5H71.0204L70.0664 24.62H64.8824L63.9104 27.5H61.2644ZM65.5844 22.46H69.3644L67.1324 15.782H67.8164L65.5844 22.46ZM74.1769 27.5V14.09H79.1629C80.0749 14.09 80.8789 14.258 81.5749 14.594C82.2829 14.918 82.8349 15.398 83.2309 16.034C83.6269 16.658 83.8249 17.42 83.8249 18.32C83.8249 19.244 83.6029 20.03 83.1589 20.678C82.7269 21.326 82.1389 21.806 81.3949 22.118L84.4729 27.5H81.7009L78.4069 21.614L79.9909 22.55H76.6249V27.5H74.1769ZM76.6249 20.39H79.1989C79.6429 20.39 80.0269 20.306 80.3509 20.138C80.6749 19.958 80.9269 19.712 81.1069 19.4C81.2869 19.088 81.3769 18.728 81.3769 18.32C81.3769 17.9 81.2869 17.54 81.1069 17.24C80.9269 16.928 80.6749 16.688 80.3509 16.52C80.0269 16.34 79.6429 16.25 79.1989 16.25H76.6249V20.39ZM85.0773 27.5V14.09H87.4173L92.4393 20.912H91.3233L96.2373 14.09H98.5773V27.5H96.1113V16.88L97.0653 17.114L91.9713 23.9H91.6833L86.7153 17.114L87.5253 16.88V27.5H85.0773ZM106.75 27.716C105.766 27.716 104.848 27.542 103.996 27.194C103.144 26.846 102.4 26.36 101.764 25.736C101.128 25.112 100.63 24.38 100.27 23.54C99.9217 22.688 99.7477 21.77 99.7477 20.786C99.7477 19.79 99.9217 18.872 100.27 18.032C100.618 17.192 101.11 16.46 101.746 15.836C102.382 15.212 103.126 14.732 103.978 14.396C104.83 14.048 105.754 13.874 106.75 13.874C107.746 13.874 108.67 14.048 109.522 14.396C110.374 14.744 111.118 15.23 111.754 15.854C112.39 16.466 112.882 17.192 113.23 18.032C113.59 18.872 113.77 19.79 113.77 20.786C113.77 21.77 113.59 22.688 113.23 23.54C112.87 24.38 112.372 25.112 111.736 25.736C111.1 26.36 110.356 26.846 109.504 27.194C108.664 27.542 107.746 27.716 106.75 27.716ZM106.75 25.484C107.41 25.484 108.016 25.37 108.568 25.142C109.12 24.902 109.6 24.572 110.008 24.152C110.428 23.732 110.746 23.234 110.962 22.658C111.19 22.082 111.304 21.458 111.304 20.786C111.304 20.114 111.19 19.496 110.962 18.932C110.746 18.356 110.428 17.858 110.008 17.438C109.6 17.006 109.12 16.676 108.568 16.448C108.016 16.22 107.41 16.106 106.75 16.106C106.102 16.106 105.502 16.22 104.95 16.448C104.398 16.676 103.912 17.006 103.492 17.438C103.084 17.858 102.766 18.356 102.538 18.932C102.31 19.496 102.196 20.114 102.196 20.786C102.196 21.458 102.31 22.082 102.538 22.658C102.766 23.234 103.084 23.732 103.492 24.152C103.912 24.572 104.398 24.902 104.95 25.142C105.502 25.37 106.102 25.484 106.75 25.484ZM124.511 27.716C123.479 27.716 122.561 27.5 121.757 27.068C120.965 26.636 120.341 26.042 119.885 25.286C119.429 24.53 119.201 23.672 119.201 22.712V14.09H121.649V22.586C121.649 23.138 121.769 23.636 122.009 24.08C122.261 24.524 122.603 24.872 123.035 25.124C123.467 25.364 123.959 25.484 124.511 25.484C125.075 25.484 125.567 25.364 125.987 25.124C126.419 24.872 126.755 24.524 126.995 24.08C127.247 23.636 127.373 23.138 127.373 22.586V14.09H129.821V22.712C129.821 23.672 129.593 24.53 129.137 25.286C128.681 26.042 128.051 26.636 127.247 27.068C126.455 27.5 125.543 27.716 124.511 27.716ZM131.265 27.5V14.09H133.713V27.5H131.265Z" fill="url(#paint1_linear_7474_50326)"/>
<defs>
<linearGradient id="paint0_linear_7474_50326" x1="-19.6762" y1="19.6762" x2="19.6762" y2="59.0286" gradientUnits="userSpaceOnUse">
<stop stop-color="#916BFF"/>
<stop offset="1" stop-color="#3366FF"/>
</linearGradient>
<linearGradient id="paint1_linear_7474_50326" x1="57.2241" y1="10.6655" x2="59.9905" y2="28.4215" gradientUnits="userSpaceOnUse">
<stop offset="0.131365" stop-color="white"/>
<stop offset="1" stop-color="#FAFAFA"/>
</linearGradient>
</defs>
</svg>
