<svg xmlns="http://www.w3.org/2000/svg" width="1803" height="747" fill="none"><g clip-path="url(#a)"><g clip-path="url(#b)" opacity=".2"><mask id="d" width="1803" height="747" x=".194" y=".193" fill="#000" maskUnits="userSpaceOnUse"><path fill="#fff" d="M.194.193h1803v747H.194z"/><path d="M63.284 1.193H1.194v62.052m62.09-62.052v62.052V1.193zm0 0h62.09-62.09zm0 62.052H1.194h62.09zm0 0h62.09-62.09zm0 0v62.051-62.052zm-62.09 0v62.051-62.052zm124.18-62.052v62.052V1.193zm0 0h62.09-62.09zm0 62.052h62.09-62.09zm0 0v62.051-62.052zm62.09-62.052v62.052V1.193zm0 0h62.09-62.09zm0 62.052h62.09-62.09zm0 0v62.051-62.052zm62.09-62.052v62.052V1.193zm0 0h62.09-62.09zm0 62.052h62.09-62.09zm0 0v62.051-62.052zm62.09-62.052v62.052V1.193zm0 0h62.09-62.09zm0 62.052h62.09-62.09zm0 0v62.051-62.052zm62.09-62.052v62.052V1.193zm0 0h62.09-62.09zm0 62.052h62.09-62.09zm0 0v62.051-62.052zm62.09-62.052v62.052V1.193zm0 0h62.09-62.09zm0 62.052h62.09-62.09zm0 0v62.051-62.052zm62.09-62.052v62.052V1.193zm0 0h62.09-62.09zm0 62.052h62.09-62.09zm0 0v62.051-62.052zm62.09-62.052v62.052V1.193zm0 0h62.09-62.09zm0 62.052h62.09-62.09zm0 0v62.051-62.052zm62.09-62.052v62.052V1.193zm0 0h62.091-62.091zm0 62.052h62.091-62.091zm0 0v62.051-62.052zm62.091-62.052v62.052V1.193zm0 0h62.09-62.09zm0 62.052h62.09-62.09zm0 0v62.051-62.052zm62.09-62.052v62.052V1.193zm0 0h62.09-62.09zm0 62.052h62.09-62.09zm0 0v62.051-62.052zm62.09-62.052v62.052V1.193zm0 0h62.09-62.09zm0 62.052h62.09-62.09zm0 0v62.051-62.052zm62.09-62.052v62.052V1.193zm0 0h62.09-62.09zm0 62.052h62.09-62.09zm0 0v62.051-62.052zm62.09-62.052v62.052V1.193zm0 0h62.09-62.09zm0 62.052h62.09-62.09zm0 0v62.051-62.052zm62.09-62.052v62.052V1.193zm0 0h62.085-62.085zm0 62.052h62.085-62.085zm0 0v62.051-62.052zm62.085-62.052v62.052V1.193zm0 0h62.1-62.1zm0 62.052h62.1-62.1zm0 0v62.051-62.052zm62.1-62.052v62.052V1.193zm0 0h62.09-62.09zm0 62.052h62.09-62.09zm0 0v62.051-62.052zm62.09-62.052v62.052V1.193zm0 0H1243h-62.09zm0 62.052H1243h-62.09zm0 0v62.051-62.052zM1243 1.193v62.052V1.193zm0 0h62.09H1243zm0 62.052h62.09H1243zm0 0v62.051-62.052zm62.09-62.052v62.052V1.193zm0 0h62.09-62.09zm0 62.052h62.09-62.09zm0 0v62.051-62.052zm62.09-62.052v62.052V1.193zm0 0h62.09-62.09zm0 62.052h62.09-62.09zm0 0v62.051-62.052zm62.09-62.052v62.052V1.193zm0 0h62.09-62.09zm0 62.052h62.09-62.09zm0 0v62.051-62.052zm62.09-62.052v62.052V1.193zm0 0h62.09-62.09zm0 62.052h62.09-62.09zm0 0v62.051-62.052zm62.09-62.052v62.052V1.193zm0 0h62.09-62.09zm0 62.052h62.09-62.09zm0 0v62.051-62.052zm62.09-62.052v62.052V1.193zm0 0h62.09-62.09zm0 62.052h62.09-62.09zm0 0v62.051-62.052zm62.09-62.052v62.052V1.193zm0 0h62.09-62.09zm0 62.052h62.09-62.09zm0 0v62.051-62.052zm62.09-62.052v62.052V1.193zm0 0h62.09v62.052m-62.09 0h62.09-62.09zm0 0v62.051-62.052zm62.09 0v62.051-62.052zM63.284 125.296H1.194h62.09zm0 0h62.09-62.09zm0 0v62.051-62.051zm-62.09 0v62.051-62.051zm124.18 0h62.09-62.09zm0 0v62.051-62.051zm62.09 0h62.09-62.09zm0 0v62.051-62.051zm62.09 0h62.09-62.09zm0 0v62.051-62.051zm62.09 0h62.09-62.09zm0 0v62.051-62.051zm62.09 0h62.09-62.09zm0 0v62.051-62.051zm62.09 0h62.09-62.09zm0 0v62.051-62.051zm62.09 0h62.09-62.09zm0 0v62.051-62.051zm62.09 0h62.09-62.09zm0 0v62.051-62.051zm62.09 0h62.091-62.091zm0 0v62.051-62.051zm62.091 0h62.09-62.09zm0 0v62.051-62.051zm62.09 0h62.09-62.09zm0 0v62.051-62.051zm62.09 0h62.09-62.09zm0 0v62.051-62.051zm62.09 0h62.09-62.09zm0 0v62.051-62.051zm62.09 0h62.09-62.09zm0 0v62.051-62.051zm62.09 0h62.085-62.085zm0 0v62.051-62.051zm62.085 0h62.1-62.1zm0 0v62.051-62.051zm62.1 0h62.09-62.09zm0 0v62.051-62.051zm62.09 0H1243h-62.09zm0 0v62.051-62.051zm62.09 0h62.09H1243zm0 0v62.051-62.051zm62.09 0h62.09-62.09zm0 0v62.051-62.051zm62.09 0h62.09-62.09zm0 0v62.051-62.051zm62.09 0h62.09-62.09zm0 0v62.051-62.051zm62.09 0h62.09-62.09zm0 0v62.051-62.051zm62.09 0h62.09-62.09zm0 0v62.051-62.051zm62.09 0h62.09-62.09zm0 0v62.051-62.051zm62.09 0h62.09-62.09zm0 0v62.051-62.051zm62.09 0h62.09-62.09zm0 0v62.051-62.051zm62.09 0v62.051-62.051zM63.284 187.347H1.194h62.09zm0 0h62.09-62.09zm0 0v62.051-62.051zm-62.09 0v62.051-62.051zm124.18 0h62.09-62.09zm0 0v62.051-62.051zm62.09 0h62.09-62.09zm0 0v62.051-62.051zm62.09 0h62.09-62.09zm0 0v62.051-62.051zm62.09 0h62.09-62.09zm0 0v62.051-62.051zm62.09 0h62.09-62.09zm0 0v62.051-62.051zm62.09 0h62.09-62.09zm0 0v62.051-62.051zm62.09 0h62.09-62.09zm0 0v62.051-62.051zm62.09 0h62.09-62.09zm0 0v62.051-62.051zm62.09 0h62.091-62.091zm0 0v62.051-62.051zm62.091 0h62.09-62.09zm0 0v62.051-62.051zm62.09 0h62.09-62.09zm0 0v62.051-62.051zm62.09 0h62.09-62.09zm0 0v62.051-62.051zm62.09 0h62.09-62.09zm0 0v62.051-62.051zm62.09 0h62.09-62.09zm0 0v62.051-62.051zm62.09 0h62.085-62.085zm0 0v62.051-62.051zm62.085 0h62.1-62.1zm0 0v62.051-62.051zm62.1 0h62.09-62.09zm0 0v62.051-62.051zm62.09 0H1243h-62.09zm0 0v62.051-62.051zm62.09 0h62.09H1243zm0 0v62.051-62.051zm62.09 0h62.09-62.09zm0 0v62.051-62.051zm62.09 0h62.09-62.09zm0 0v62.051-62.051zm62.09 0h62.09-62.09zm0 0v62.051-62.051zm62.09 0h62.09-62.09zm0 0v62.051-62.051zm62.09 0h62.09-62.09zm0 0v62.051-62.051zm62.09 0h62.09-62.09zm0 0v62.051-62.051zm62.09 0h62.09-62.09zm0 0v62.051-62.051zm62.09 0h62.09-62.09zm0 0v62.051-62.051zm62.09 0v62.051-62.051zM63.284 249.398H1.194h62.09zm0 0h62.09-62.09zm0 0v62.051-62.051zm-62.09 0v62.051-62.051zm124.18 0h62.09-62.09zm0 0v62.051-62.051zm62.09 0h62.09-62.09zm0 0v62.051-62.051zm62.09 0h62.09-62.09zm0 0v62.051-62.051zm62.09 0h62.09-62.09zm0 0v62.051-62.051zm62.09 0h62.09-62.09zm0 0v62.051-62.051zm62.09 0h62.09-62.09zm0 0v62.051-62.051zm62.09 0h62.09-62.09zm0 0v62.051-62.051zm62.09 0h62.09-62.09zm0 0v62.051-62.051zm62.09 0h62.091-62.091zm0 0v62.051-62.051zm62.091 0h62.09-62.09zm0 0v62.051-62.051zm62.09 0h62.09-62.09zm0 0v62.051-62.051zm62.09 0h62.09-62.09zm0 0v62.051-62.051zm62.09 0h62.09-62.09zm0 0v62.051-62.051zm62.09 0h62.09-62.09zm0 0v62.051-62.051zm62.09 0h62.085-62.085zm0 0v62.051-62.051zm62.085 0h62.1-62.1zm0 0v62.051-62.051zm62.1 0h62.09-62.09zm0 0v62.051-62.051zm62.09 0H1243h-62.09zm0 0v62.051-62.051zm62.09 0h62.09H1243zm0 0v62.051-62.051zm62.09 0h62.09-62.09zm0 0v62.051-62.051zm62.09 0h62.09-62.09zm0 0v62.051-62.051zm62.09 0h62.09-62.09zm0 0v62.051-62.051zm62.09 0h62.09-62.09zm0 0v62.051-62.051zm62.09 0h62.09-62.09zm0 0v62.051-62.051zm62.09 0h62.09-62.09zm0 0v62.051-62.051zm62.09 0h62.09-62.09zm0 0v62.051-62.051zm62.09 0h62.09-62.09zm0 0v62.051-62.051zm62.09 0v62.051-62.051zM63.284 311.449H1.194h62.09zm0 0h62.09-62.09zm0 0V373.5v-62.051zm-62.09 0V373.5v-62.051zm124.18 0h62.09-62.09zm0 0V373.5v-62.051zm62.09 0h62.09-62.09zm0 0V373.5v-62.051zm62.09 0h62.09-62.09zm0 0V373.5v-62.051zm62.09 0h62.09-62.09zm0 0V373.5v-62.051zm62.09 0h62.09-62.09zm0 0V373.5v-62.051zm62.09 0h62.09-62.09zm0 0V373.5v-62.051zm62.09 0h62.09-62.09zm0 0V373.5v-62.051zm62.09 0h62.09-62.09zm0 0V373.5v-62.051zm62.09 0h62.091-62.091zm0 0V373.5v-62.051zm62.091 0h62.09-62.09zm0 0V373.5v-62.051zm62.09 0h62.09-62.09zm0 0V373.5v-62.051zm62.09 0h62.09-62.09zm0 0V373.5v-62.051zm62.09 0h62.09-62.09zm0 0V373.5v-62.051zm62.09 0h62.09-62.09zm0 0V373.5v-62.051zm62.09 0h62.085-62.085zm0 0V373.5v-62.051zm62.085 0h62.1-62.1zm0 0V373.5v-62.051zm62.1 0h62.09-62.09zm0 0V373.5v-62.051zm62.09 0H1243h-62.09zm0 0V373.5v-62.051zm62.09 0h62.09H1243zm0 0V373.5v-62.051zm62.09 0h62.09-62.09zm0 0V373.5v-62.051zm62.09 0h62.09-62.09zm0 0V373.5v-62.051zm62.09 0h62.09-62.09zm0 0V373.5v-62.051zm62.09 0h62.09-62.09zm0 0V373.5v-62.051zm62.09 0h62.09-62.09zm0 0V373.5v-62.051zm62.09 0h62.09-62.09zm0 0V373.5v-62.051zm62.09 0h62.09-62.09zm0 0V373.5v-62.051zm62.09 0h62.09-62.09zm0 0V373.5v-62.051zm62.09 0V373.5v-62.051zM63.284 373.5H1.194h62.09zm0 0h62.09-62.09zm0 0v62.051V373.5zm-62.09 0v62.051V373.5zm124.18 0h62.09-62.09zm0 0v62.051V373.5zm62.09 0h62.09-62.09zm0 0v62.051V373.5zm62.09 0h62.09-62.09zm0 0v62.051V373.5zm62.09 0h62.09-62.09zm0 0v62.051V373.5zm62.09 0h62.09-62.09zm0 0v62.051V373.5zm62.09 0h62.09-62.09zm0 0v62.051V373.5zm62.09 0h62.09-62.09zm0 0v62.051V373.5zm62.09 0h62.09-62.09zm0 0v62.051V373.5zm62.09 0h62.091-62.091zm0 0v62.051V373.5zm62.091 0h62.09-62.09zm0 0v62.051V373.5zm62.09 0h62.09-62.09zm0 0v62.051V373.5zm62.09 0h62.09-62.09zm0 0v62.051V373.5zm62.09 0h62.09-62.09zm0 0v62.051V373.5zm62.09 0h62.09-62.09zm0 0v62.051V373.5zm62.09 0h62.085-62.085zm0 0v62.051V373.5zm62.085 0h62.1-62.1zm0 0v62.051V373.5zm62.1 0h62.09-62.09zm0 0v62.051V373.5zm62.09 0H1243h-62.09zm0 0v62.051V373.5zm62.09 0h62.09H1243zm0 0v62.051V373.5zm62.09 0h62.09-62.09zm0 0v62.051V373.5zm62.09 0h62.09-62.09zm0 0v62.051V373.5zm62.09 0h62.09-62.09zm0 0v62.051V373.5zm62.09 0h62.09-62.09zm0 0v62.051V373.5zm62.09 0h62.09-62.09zm0 0v62.051V373.5zm62.09 0h62.09-62.09zm0 0v62.051V373.5zm62.09 0h62.09-62.09zm0 0v62.051V373.5zm62.09 0h62.09-62.09zm0 0v62.051V373.5zm62.09 0v62.051V373.5zM63.284 435.551H1.194h62.09zm0 0h62.09-62.09zm0 0v62.051-62.051zm-62.09 0v62.051-62.051zm124.18 0h62.09-62.09zm0 0v62.051-62.051zm62.09 0h62.09-62.09zm0 0v62.051-62.051zm62.09 0h62.09-62.09zm0 0v62.051-62.051zm62.09 0h62.09-62.09zm0 0v62.051-62.051zm62.09 0h62.09-62.09zm0 0v62.051-62.051zm62.09 0h62.09-62.09zm0 0v62.051-62.051zm62.09 0h62.09-62.09zm0 0v62.051-62.051zm62.09 0h62.09-62.09zm0 0v62.051-62.051zm62.09 0h62.091-62.091zm0 0v62.051-62.051zm62.091 0h62.09-62.09zm0 0v62.051-62.051zm62.09 0h62.09-62.09zm0 0v62.051-62.051zm62.09 0h62.09-62.09zm0 0v62.051-62.051zm62.09 0h62.09-62.09zm0 0v62.051-62.051zm62.09 0h62.09-62.09zm0 0v62.051-62.051zm62.09 0h62.085-62.085zm0 0v62.051-62.051zm62.085 0h62.1-62.1zm0 0v62.051-62.051zm62.1 0h62.09-62.09zm0 0v62.051-62.051zm62.09 0H1243h-62.09zm0 0v62.051-62.051zm62.09 0h62.09H1243zm0 0v62.051-62.051zm62.09 0h62.09-62.09zm0 0v62.051-62.051zm62.09 0h62.09-62.09zm0 0v62.051-62.051zm62.09 0h62.09-62.09zm0 0v62.051-62.051zm62.09 0h62.09-62.09zm0 0v62.051-62.051zm62.09 0h62.09-62.09zm0 0v62.051-62.051zm62.09 0h62.09-62.09zm0 0v62.051-62.051zm62.09 0h62.09-62.09zm0 0v62.051-62.051zm62.09 0h62.09-62.09zm0 0v62.051-62.051zm62.09 0v62.051-62.051zM63.284 497.602H1.194h62.09zm0 0h62.09-62.09zm0 0v62.051-62.051zm-62.09 0v62.051-62.051zm124.18 0h62.09-62.09zm0 0v62.051-62.051zm62.09 0h62.09-62.09zm0 0v62.051-62.051zm62.09 0h62.09-62.09zm0 0v62.051-62.051zm62.09 0h62.09-62.09zm0 0v62.051-62.051zm62.09 0h62.09-62.09zm0 0v62.051-62.051zm62.09 0h62.09-62.09zm0 0v62.051-62.051zm62.09 0h62.09-62.09zm0 0v62.051-62.051zm62.09 0h62.09-62.09zm0 0v62.051-62.051zm62.09 0h62.091-62.091zm0 0v62.051-62.051zm62.091 0h62.09-62.09zm0 0v62.051-62.051zm62.09 0h62.09-62.09zm0 0v62.051-62.051zm62.09 0h62.09-62.09zm0 0v62.051-62.051zm62.09 0h62.09-62.09zm0 0v62.051-62.051zm62.09 0h62.09-62.09zm0 0v62.051-62.051zm62.09 0h62.085-62.085zm0 0v62.051-62.051zm62.085 0h62.1-62.1zm0 0v62.051-62.051zm62.1 0h62.09-62.09zm0 0v62.051-62.051zm62.09 0H1243h-62.09zm0 0v62.051-62.051zm62.09 0h62.09H1243zm0 0v62.051-62.051zm62.09 0h62.09-62.09zm0 0v62.051-62.051zm62.09 0h62.09-62.09zm0 0v62.051-62.051zm62.09 0h62.09-62.09zm0 0v62.051-62.051zm62.09 0h62.09-62.09zm0 0v62.051-62.051zm62.09 0h62.09-62.09zm0 0v62.051-62.051zm62.09 0h62.09-62.09zm0 0v62.051-62.051zm62.09 0h62.09-62.09zm0 0v62.051-62.051zm62.09 0h62.09-62.09zm0 0v62.051-62.051zm62.09 0v62.051-62.051zM63.284 559.653H1.194h62.09zm0 0h62.09-62.09zm0 0v62.052-62.052zm-62.09 0v62.052-62.052zm124.18 0h62.09-62.09zm0 0v62.052-62.052zm62.09 0h62.09-62.09zm0 0v62.052-62.052zm62.09 0h62.09-62.09zm0 0v62.052-62.052zm62.09 0h62.09-62.09zm0 0v62.052-62.052zm62.09 0h62.09-62.09zm0 0v62.052-62.052zm62.09 0h62.09-62.09zm0 0v62.052-62.052zm62.09 0h62.09-62.09zm0 0v62.052-62.052zm62.09 0h62.09-62.09zm0 0v62.052-62.052zm62.09 0h62.091-62.091zm0 0v62.052-62.052zm62.091 0h62.09-62.09zm0 0v62.052-62.052zm62.09 0h62.09-62.09zm0 0v62.052-62.052zm62.09 0h62.09-62.09zm0 0v62.052-62.052zm62.09 0h62.09-62.09zm0 0v62.052-62.052zm62.09 0h62.09-62.09zm0 0v62.052-62.052zm62.09 0h62.085-62.085zm0 0v62.052-62.052zm62.085 0h62.1-62.1zm0 0v62.052-62.052zm62.1 0h62.09-62.09zm0 0v62.052-62.052zm62.09 0H1243h-62.09zm0 0v62.052-62.052zm62.09 0h62.09H1243zm0 0v62.052-62.052zm62.09 0h62.09-62.09zm0 0v62.052-62.052zm62.09 0h62.09-62.09zm0 0v62.052-62.052zm62.09 0h62.09-62.09zm0 0v62.052-62.052zm62.09 0h62.09-62.09zm0 0v62.052-62.052zm62.09 0h62.09-62.09zm0 0v62.052-62.052zm62.09 0h62.09-62.09zm0 0v62.052-62.052zm62.09 0h62.09-62.09zm0 0v62.052-62.052zm62.09 0h62.09-62.09zm0 0v62.052-62.052zm62.09 0v62.052-62.052zM63.284 621.705H1.194h62.09zm0 0h62.09-62.09zm0 0v62.051-62.051zm-62.09 0v62.051-62.051zm124.18 0h62.09-62.09zm0 0v62.051-62.051zm62.09 0h62.09-62.09zm0 0v62.051-62.051zm62.09 0h62.09-62.09zm0 0v62.051-62.051zm62.09 0h62.09-62.09zm0 0v62.051-62.051zm62.09 0h62.09-62.09zm0 0v62.051-62.051zm62.09 0h62.09-62.09zm0 0v62.051-62.051zm62.09 0h62.09-62.09zm0 0v62.051-62.051zm62.09 0h62.09-62.09zm0 0v62.051-62.051zm62.09 0h62.091-62.091zm0 0v62.051-62.051zm62.091 0h62.09-62.09zm0 0v62.051-62.051zm62.09 0h62.09-62.09zm0 0v62.051-62.051zm62.09 0h62.09-62.09zm0 0v62.051-62.051zm62.09 0h62.09-62.09zm0 0v62.051-62.051zm62.09 0h62.09-62.09zm0 0v62.051-62.051zm62.09 0h62.085-62.085zm0 0v62.051-62.051zm62.085 0h62.1-62.1zm0 0v62.051-62.051zm62.1 0h62.09-62.09zm0 0v62.051-62.051zm62.09 0H1243h-62.09zm0 0v62.051-62.051zm62.09 0h62.09H1243zm0 0v62.051-62.051zm62.09 0h62.09-62.09zm0 0v62.051-62.051zm62.09 0h62.09-62.09zm0 0v62.051-62.051zm62.09 0h62.09-62.09zm0 0v62.051-62.051zm62.09 0h62.09-62.09zm0 0v62.051-62.051zm62.09 0h62.09-62.09zm0 0v62.051-62.051zm62.09 0h62.09-62.09zm0 0v62.051-62.051zm62.09 0h62.09-62.09zm0 0v62.051-62.051zm62.09 0h62.09-62.09zm0 0v62.051-62.051zm62.09 0v62.051-62.051zM63.284 683.756H1.194h62.09zm0 0h62.09-62.09zm0 0v62.051-62.051zm-62.09 0v62.051h62.09m62.09-62.051h62.09-62.09zm0 0v62.051-62.051zm62.09 0h62.09-62.09zm0 0v62.051-62.051zm62.09 0h62.09-62.09zm0 0v62.051-62.051zm62.09 0h62.09-62.09zm0 0v62.051-62.051zm62.09 0h62.09-62.09zm0 0v62.051-62.051zm62.09 0h62.09-62.09zm0 0v62.051-62.051zm62.09 0h62.09-62.09zm0 0v62.051-62.051zm62.09 0h62.09-62.09zm0 0v62.051-62.051zm62.09 0h62.091-62.091zm0 0v62.051-62.051zm62.091 0h62.09-62.09zm0 0v62.051-62.051zm62.09 0h62.09-62.09zm0 0v62.051-62.051zm62.09 0h62.09-62.09zm0 0v62.051-62.051zm62.09 0h62.09-62.09zm0 0v62.051-62.051zm62.09 0h62.09-62.09zm0 0v62.051-62.051zm62.09 0h62.085-62.085zm0 0v62.051-62.051zm62.085 0h62.1-62.1zm0 0v62.051-62.051zm62.1 0h62.09-62.09zm0 0v62.051-62.051zm62.09 0H1243h-62.09zm0 0v62.051-62.051zm62.09 0h62.09H1243zm0 0v62.051-62.051zm62.09 0h62.09-62.09zm0 0v62.051-62.051zm62.09 0h62.09-62.09zm0 0v62.051-62.051zm62.09 0h62.09-62.09zm0 0v62.051-62.051zm62.09 0h62.09-62.09zm0 0v62.051-62.051zm62.09 0h62.09-62.09zm0 0v62.051-62.051zm62.09 0h62.09-62.09zm0 0v62.051-62.051zm62.09 0h62.09-62.09zm0 0v62.051-62.051zm62.09 0h62.09-62.09zm0 0v62.051-62.051zm62.09 0v62.051h-62.09m-1676.436 0h62.09-62.09zm62.09 0h62.09-62.09zm62.09 0h62.09-62.09zm62.09 0h62.09-62.09zm62.09 0h62.09-62.09zm62.09 0h62.09-62.09zm62.09 0h62.09-62.09zm62.09 0h62.09-62.09zm62.09 0h62.09-62.09zm62.09 0h62.091-62.091zm62.091 0h62.09-62.09zm62.09 0h62.09-62.09zm62.09 0h62.09-62.09zm62.09 0h62.09-62.09zm62.09 0h62.09-62.09zm62.09 0h62.085-62.085zm62.085 0h62.1-62.1zm62.1 0h62.09-62.09zm62.09 0H1243h-62.09zm62.09 0h62.09H1243zm62.09 0h62.09-62.09zm62.09 0h62.09-62.09zm62.09 0h62.09-62.09zm62.09 0h62.09-62.09zm62.09 0h62.09-62.09zm62.09 0h62.09-62.09zm62.09 0h62.09-62.09z"/></mask><path fill="url(#c)" fill-opacity=".9" d="M1.194 1.193v-.5h-.5v.5h.5zm1800.616 0h.5v-.5h-.5v.5zM1.194 745.807h-.5v.5h.5v-.5zm1800.616 0v.5h.5v-.5h-.5zM63.284.693H1.194v1h62.09v-1zm-62.59.5v62.052h1V1.193h-1zm62.09 0v62.052h1V1.193h-1zm.5.5h62.09v-1h-62.09v1zm0 61.052H1.194v1h62.09v-1zm0 1h62.09v-1h-62.09v1zm-.5-.5v62.051h1V63.244h-1zm-62.09 0v62.051h1V63.244h-1zm124.18-62.052v62.052h1V1.193h-1zm.5.5h62.09v-1h-62.09v1zm0 62.052h62.09v-1h-62.09v1zm-.5-.5v62.051h1V63.244h-1zm62.09-62.052v62.052h1V1.193h-1zm.5.5h62.09v-1h-62.09v1zm0 62.052h62.09v-1h-62.09v1zm-.5-.5v62.051h1V63.244h-1zm62.09-62.052v62.052h1V1.193h-1zm.5.5h62.09v-1h-62.09v1zm0 62.052h62.09v-1h-62.09v1zm-.5-.5v62.051h1V63.244h-1zm62.09-62.052v62.052h1V1.193h-1zm.5.5h62.09v-1h-62.09v1zm0 62.052h62.09v-1h-62.09v1zm-.5-.5v62.051h1V63.244h-1zm62.09-62.052v62.052h1V1.193h-1zm.5.5h62.09v-1h-62.09v1zm0 62.052h62.09v-1h-62.09v1zm-.5-.5v62.051h1V63.244h-1zm62.09-62.052v62.052h1V1.193h-1zm.5.5h62.09v-1h-62.09v1zm0 62.052h62.09v-1h-62.09v1zm-.5-.5v62.051h1V63.244h-1zm62.09-62.052v62.052h1V1.193h-1zm.5.5h62.09v-1h-62.09v1zm0 62.052h62.09v-1h-62.09v1zm-.5-.5v62.051h1V63.244h-1zm62.09-62.052v62.052h1V1.193h-1zm.5.5h62.09v-1h-62.09v1zm0 62.052h62.09v-1h-62.09v1zm-.5-.5v62.051h1V63.244h-1zm62.09-62.052v62.052h1V1.193h-1zm.5.5h62.091v-1h-62.091v1zm0 62.052h62.091v-1h-62.091v1zm-.5-.5v62.051h1V63.244h-1zm62.091-62.052v62.052h1V1.193h-1zm.5.5h62.09v-1h-62.09v1zm0 62.052h62.09v-1h-62.09v1zm-.5-.5v62.051h1V63.244h-1zm62.09-62.052v62.052h1V1.193h-1zm.5.5h62.09v-1h-62.09v1zm0 62.052h62.09v-1h-62.09v1zm-.5-.5v62.051h1V63.244h-1zm62.09-62.052v62.052h1V1.193h-1zm.5.5h62.09v-1h-62.09v1zm0 62.052h62.09v-1h-62.09v1zm-.5-.5v62.051h1V63.244h-1zm62.09-62.052v62.052h1V1.193h-1zm.5.5h62.09v-1h-62.09v1zm0 62.052h62.09v-1h-62.09v1zm-.5-.5v62.051h1V63.244h-1zm62.09-62.052v62.052h1V1.193h-1zm.5.5h62.09v-1h-62.09v1zm0 62.052h62.09v-1h-62.09v1zm-.5-.5v62.051h1V63.244h-1zm62.09-62.052v62.052h1V1.193h-1zm.5.5h62.085v-1h-62.085v1zm0 62.052h62.085v-1h-62.085v1zm-.5-.5v62.051h1V63.244h-1zm62.085-62.052v62.052h1V1.193h-1zm.5.5h62.1v-1h-62.1v1zm0 62.052h62.1v-1h-62.1v1zm-.5-.5v62.051h1V63.244h-1zm62.1-62.052v62.052h1V1.193h-1zm.5.5h62.09v-1h-62.09v1zm0 62.052h62.09v-1h-62.09v1zm-.5-.5v62.051h1V63.244h-1zm62.09-62.052v62.052h1V1.193h-1zm.5.5H1243v-1h-62.09v1zm0 62.052H1243v-1h-62.09v1zm-.5-.5v62.051h1V63.244h-1zm62.09-62.052v62.052h1V1.193h-1zm.5.5h62.09v-1H1243v1zm0 62.052h62.09v-1H1243v1zm-.5-.5v62.051h1V63.244h-1zm62.09-62.052v62.052h1V1.193h-1zm.5.5h62.09v-1h-62.09v1zm0 62.052h62.09v-1h-62.09v1zm-.5-.5v62.051h1V63.244h-1zm62.09-62.052v62.052h1V1.193h-1zm.5.5h62.09v-1h-62.09v1zm0 62.052h62.09v-1h-62.09v1zm-.5-.5v62.051h1V63.244h-1zm62.09-62.052v62.052h1V1.193h-1zm.5.5h62.09v-1h-62.09v1zm0 62.052h62.09v-1h-62.09v1zm-.5-.5v62.051h1V63.244h-1zm62.09-62.052v62.052h1V1.193h-1zm.5.5h62.09v-1h-62.09v1zm0 62.052h62.09v-1h-62.09v1zm-.5-.5v62.051h1V63.244h-1zm62.09-62.052v62.052h1V1.193h-1zm.5.5h62.09v-1h-62.09v1zm0 62.052h62.09v-1h-62.09v1zm-.5-.5v62.051h1V63.244h-1zm62.09-62.052v62.052h1V1.193h-1zm.5.5h62.09v-1h-62.09v1zm0 62.052h62.09v-1h-62.09v1zm-.5-.5v62.051h1V63.244h-1zm62.09-62.052v62.052h1V1.193h-1zm.5.5h62.09v-1h-62.09v1zm0 62.052h62.09v-1h-62.09v1zm-.5-.5v62.051h1V63.244h-1zm62.09-62.052v62.052h1V1.193h-1zm.5.5h62.09v-1h-62.09v1zm61.59-.5v62.052h1V1.193h-1zm-61.59 62.552h62.09v-1h-62.09v1zm-.5-.5v62.051h1V63.244h-1zm62.09 0v62.051h1V63.244h-1zM63.284 124.796H1.194v1h62.09v-1zm0 1h62.09v-1h-62.09v1zm-.5-.5v62.051h1v-62.051h-1zm-62.09 0v62.051h1v-62.051h-1zm124.68.5h62.09v-1h-62.09v1zm-.5-.5v62.051h1v-62.051h-1zm62.59.5h62.09v-1h-62.09v1zm-.5-.5v62.051h1v-62.051h-1zm62.59.5h62.09v-1h-62.09v1zm-.5-.5v62.051h1v-62.051h-1zm62.59.5h62.09v-1h-62.09v1zm-.5-.5v62.051h1v-62.051h-1zm62.59.5h62.09v-1h-62.09v1zm-.5-.5v62.051h1v-62.051h-1zm62.59.5h62.09v-1h-62.09v1zm-.5-.5v62.051h1v-62.051h-1zm62.59.5h62.09v-1h-62.09v1zm-.5-.5v62.051h1v-62.051h-1zm62.59.5h62.09v-1h-62.09v1zm-.5-.5v62.051h1v-62.051h-1zm62.59.5h62.091v-1h-62.091v1zm-.5-.5v62.051h1v-62.051h-1zm62.591.5h62.09v-1h-62.09v1zm-.5-.5v62.051h1v-62.051h-1zm62.59.5h62.09v-1h-62.09v1zm-.5-.5v62.051h1v-62.051h-1zm62.59.5h62.09v-1h-62.09v1zm-.5-.5v62.051h1v-62.051h-1zm62.59.5h62.09v-1h-62.09v1zm-.5-.5v62.051h1v-62.051h-1zm62.59.5h62.09v-1h-62.09v1zm-.5-.5v62.051h1v-62.051h-1zm62.59.5h62.085v-1h-62.085v1zm-.5-.5v62.051h1v-62.051h-1zm62.585.5h62.1v-1h-62.1v1zm-.5-.5v62.051h1v-62.051h-1zm62.6.5h62.09v-1h-62.09v1zm-.5-.5v62.051h1v-62.051h-1zm62.59.5H1243v-1h-62.09v1zm-.5-.5v62.051h1v-62.051h-1zm62.59.5h62.09v-1H1243v1zm-.5-.5v62.051h1v-62.051h-1zm62.59.5h62.09v-1h-62.09v1zm-.5-.5v62.051h1v-62.051h-1zm62.59.5h62.09v-1h-62.09v1zm-.5-.5v62.051h1v-62.051h-1zm62.59.5h62.09v-1h-62.09v1zm-.5-.5v62.051h1v-62.051h-1zm62.59.5h62.09v-1h-62.09v1zm-.5-.5v62.051h1v-62.051h-1zm62.59.5h62.09v-1h-62.09v1zm-.5-.5v62.051h1v-62.051h-1zm62.59.5h62.09v-1h-62.09v1zm-.5-.5v62.051h1v-62.051h-1zm62.59.5h62.09v-1h-62.09v1zm-.5-.5v62.051h1v-62.051h-1zm62.59.5h62.09v-1h-62.09v1zm-.5-.5v62.051h1v-62.051h-1zm62.09 0v62.051h1v-62.051h-1zM63.284 186.847H1.194v1h62.09v-1zm0 1h62.09v-1h-62.09v1zm-.5-.5v62.051h1v-62.051h-1zm-62.09 0v62.051h1v-62.051h-1zm124.68.5h62.09v-1h-62.09v1zm-.5-.5v62.051h1v-62.051h-1zm62.59.5h62.09v-1h-62.09v1zm-.5-.5v62.051h1v-62.051h-1zm62.59.5h62.09v-1h-62.09v1zm-.5-.5v62.051h1v-62.051h-1zm62.59.5h62.09v-1h-62.09v1zm-.5-.5v62.051h1v-62.051h-1zm62.59.5h62.09v-1h-62.09v1zm-.5-.5v62.051h1v-62.051h-1zm62.59.5h62.09v-1h-62.09v1zm-.5-.5v62.051h1v-62.051h-1zm62.59.5h62.09v-1h-62.09v1zm-.5-.5v62.051h1v-62.051h-1zm62.59.5h62.09v-1h-62.09v1zm-.5-.5v62.051h1v-62.051h-1zm62.59.5h62.091v-1h-62.091v1zm-.5-.5v62.051h1v-62.051h-1zm62.591.5h62.09v-1h-62.09v1zm-.5-.5v62.051h1v-62.051h-1zm62.59.5h62.09v-1h-62.09v1zm-.5-.5v62.051h1v-62.051h-1zm62.59.5h62.09v-1h-62.09v1zm-.5-.5v62.051h1v-62.051h-1zm62.59.5h62.09v-1h-62.09v1zm-.5-.5v62.051h1v-62.051h-1zm62.59.5h62.09v-1h-62.09v1zm-.5-.5v62.051h1v-62.051h-1zm62.59.5h62.085v-1h-62.085v1zm-.5-.5v62.051h1v-62.051h-1zm62.585.5h62.1v-1h-62.1v1zm-.5-.5v62.051h1v-62.051h-1zm62.6.5h62.09v-1h-62.09v1zm-.5-.5v62.051h1v-62.051h-1zm62.59.5H1243v-1h-62.09v1zm-.5-.5v62.051h1v-62.051h-1zm62.59.5h62.09v-1H1243v1zm-.5-.5v62.051h1v-62.051h-1zm62.59.5h62.09v-1h-62.09v1zm-.5-.5v62.051h1v-62.051h-1zm62.59.5h62.09v-1h-62.09v1zm-.5-.5v62.051h1v-62.051h-1zm62.59.5h62.09v-1h-62.09v1zm-.5-.5v62.051h1v-62.051h-1zm62.59.5h62.09v-1h-62.09v1zm-.5-.5v62.051h1v-62.051h-1zm62.59.5h62.09v-1h-62.09v1zm-.5-.5v62.051h1v-62.051h-1zm62.59.5h62.09v-1h-62.09v1zm-.5-.5v62.051h1v-62.051h-1zm62.59.5h62.09v-1h-62.09v1zm-.5-.5v62.051h1v-62.051h-1zm62.59.5h62.09v-1h-62.09v1zm-.5-.5v62.051h1v-62.051h-1zm62.09 0v62.051h1v-62.051h-1zM63.284 248.898H1.194v1h62.09v-1zm0 1h62.09v-1h-62.09v1zm-.5-.5v62.051h1v-62.051h-1zm-62.09 0v62.051h1v-62.051h-1zm124.68.5h62.09v-1h-62.09v1zm-.5-.5v62.051h1v-62.051h-1zm62.59.5h62.09v-1h-62.09v1zm-.5-.5v62.051h1v-62.051h-1zm62.59.5h62.09v-1h-62.09v1zm-.5-.5v62.051h1v-62.051h-1zm62.59.5h62.09v-1h-62.09v1zm-.5-.5v62.051h1v-62.051h-1zm62.59.5h62.09v-1h-62.09v1zm-.5-.5v62.051h1v-62.051h-1zm62.59.5h62.09v-1h-62.09v1zm-.5-.5v62.051h1v-62.051h-1zm62.59.5h62.09v-1h-62.09v1zm-.5-.5v62.051h1v-62.051h-1zm62.59.5h62.09v-1h-62.09v1zm-.5-.5v62.051h1v-62.051h-1zm62.59.5h62.091v-1h-62.091v1zm-.5-.5v62.051h1v-62.051h-1zm62.591.5h62.09v-1h-62.09v1zm-.5-.5v62.051h1v-62.051h-1zm62.59.5h62.09v-1h-62.09v1zm-.5-.5v62.051h1v-62.051h-1zm62.59.5h62.09v-1h-62.09v1zm-.5-.5v62.051h1v-62.051h-1zm62.59.5h62.09v-1h-62.09v1zm-.5-.5v62.051h1v-62.051h-1zm62.59.5h62.09v-1h-62.09v1zm-.5-.5v62.051h1v-62.051h-1zm62.59.5h62.085v-1h-62.085v1zm-.5-.5v62.051h1v-62.051h-1zm62.585.5h62.1v-1h-62.1v1zm-.5-.5v62.051h1v-62.051h-1zm62.6.5h62.09v-1h-62.09v1zm-.5-.5v62.051h1v-62.051h-1zm62.59.5H1243v-1h-62.09v1zm-.5-.5v62.051h1v-62.051h-1zm62.59.5h62.09v-1H1243v1zm-.5-.5v62.051h1v-62.051h-1zm62.59.5h62.09v-1h-62.09v1zm-.5-.5v62.051h1v-62.051h-1zm62.59.5h62.09v-1h-62.09v1zm-.5-.5v62.051h1v-62.051h-1zm62.59.5h62.09v-1h-62.09v1zm-.5-.5v62.051h1v-62.051h-1zm62.59.5h62.09v-1h-62.09v1zm-.5-.5v62.051h1v-62.051h-1zm62.59.5h62.09v-1h-62.09v1zm-.5-.5v62.051h1v-62.051h-1zm62.59.5h62.09v-1h-62.09v1zm-.5-.5v62.051h1v-62.051h-1zm62.59.5h62.09v-1h-62.09v1zm-.5-.5v62.051h1v-62.051h-1zm62.59.5h62.09v-1h-62.09v1zm-.5-.5v62.051h1v-62.051h-1zm62.09 0v62.051h1v-62.051h-1zM63.284 310.949H1.194v1h62.09v-1zm0 1h62.09v-1h-62.09v1zm-.5-.5V373.5h1v-62.051h-1zm-62.09 0V373.5h1v-62.051h-1zm124.68.5h62.09v-1h-62.09v1zm-.5-.5V373.5h1v-62.051h-1zm62.59.5h62.09v-1h-62.09v1zm-.5-.5V373.5h1v-62.051h-1zm62.59.5h62.09v-1h-62.09v1zm-.5-.5V373.5h1v-62.051h-1zm62.59.5h62.09v-1h-62.09v1zm-.5-.5V373.5h1v-62.051h-1zm62.59.5h62.09v-1h-62.09v1zm-.5-.5V373.5h1v-62.051h-1zm62.59.5h62.09v-1h-62.09v1zm-.5-.5V373.5h1v-62.051h-1zm62.59.5h62.09v-1h-62.09v1zm-.5-.5V373.5h1v-62.051h-1zm62.59.5h62.09v-1h-62.09v1zm-.5-.5V373.5h1v-62.051h-1zm62.59.5h62.091v-1h-62.091v1zm-.5-.5V373.5h1v-62.051h-1zm62.591.5h62.09v-1h-62.09v1zm-.5-.5V373.5h1v-62.051h-1zm62.59.5h62.09v-1h-62.09v1zm-.5-.5V373.5h1v-62.051h-1zm62.59.5h62.09v-1h-62.09v1zm-.5-.5V373.5h1v-62.051h-1zm62.59.5h62.09v-1h-62.09v1zm-.5-.5V373.5h1v-62.051h-1zm62.59.5h62.09v-1h-62.09v1zm-.5-.5V373.5h1v-62.051h-1zm62.59.5h62.085v-1h-62.085v1zm-.5-.5V373.5h1v-62.051h-1zm62.585.5h62.1v-1h-62.1v1zm-.5-.5V373.5h1v-62.051h-1zm62.6.5h62.09v-1h-62.09v1zm-.5-.5V373.5h1v-62.051h-1zm62.59.5H1243v-1h-62.09v1zm-.5-.5V373.5h1v-62.051h-1zm62.59.5h62.09v-1H1243v1zm-.5-.5V373.5h1v-62.051h-1zm62.59.5h62.09v-1h-62.09v1zm-.5-.5V373.5h1v-62.051h-1zm62.59.5h62.09v-1h-62.09v1zm-.5-.5V373.5h1v-62.051h-1zm62.59.5h62.09v-1h-62.09v1zm-.5-.5V373.5h1v-62.051h-1zm62.59.5h62.09v-1h-62.09v1zm-.5-.5V373.5h1v-62.051h-1zm62.59.5h62.09v-1h-62.09v1zm-.5-.5V373.5h1v-62.051h-1zm62.59.5h62.09v-1h-62.09v1zm-.5-.5V373.5h1v-62.051h-1zm62.59.5h62.09v-1h-62.09v1zm-.5-.5V373.5h1v-62.051h-1zm62.59.5h62.09v-1h-62.09v1zm-.5-.5V373.5h1v-62.051h-1zm62.09 0V373.5h1v-62.051h-1zM63.284 373H1.194v1h62.09v-1zm0 1h62.09v-1h-62.09v1zm-.5-.5v62.051h1V373.5h-1zm-62.09 0v62.051h1V373.5h-1zm124.68.5h62.09v-1h-62.09v1zm-.5-.5v62.051h1V373.5h-1zm62.59.5h62.09v-1h-62.09v1zm-.5-.5v62.051h1V373.5h-1zm62.59.5h62.09v-1h-62.09v1zm-.5-.5v62.051h1V373.5h-1zm62.59.5h62.09v-1h-62.09v1zm-.5-.5v62.051h1V373.5h-1zm62.59.5h62.09v-1h-62.09v1zm-.5-.5v62.051h1V373.5h-1zm62.59.5h62.09v-1h-62.09v1zm-.5-.5v62.051h1V373.5h-1zm62.59.5h62.09v-1h-62.09v1zm-.5-.5v62.051h1V373.5h-1zm62.59.5h62.09v-1h-62.09v1zm-.5-.5v62.051h1V373.5h-1zm62.59.5h62.091v-1h-62.091v1zm-.5-.5v62.051h1V373.5h-1zm62.591.5h62.09v-1h-62.09v1zm-.5-.5v62.051h1V373.5h-1zm62.59.5h62.09v-1h-62.09v1zm-.5-.5v62.051h1V373.5h-1zm62.59.5h62.09v-1h-62.09v1zm-.5-.5v62.051h1V373.5h-1zm62.59.5h62.09v-1h-62.09v1zm-.5-.5v62.051h1V373.5h-1zm62.59.5h62.09v-1h-62.09v1zm-.5-.5v62.051h1V373.5h-1zm62.59.5h62.085v-1h-62.085v1zm-.5-.5v62.051h1V373.5h-1zm62.585.5h62.1v-1h-62.1v1zm-.5-.5v62.051h1V373.5h-1zm62.6.5h62.09v-1h-62.09v1zm-.5-.5v62.051h1V373.5h-1zm62.59.5H1243v-1h-62.09v1zm-.5-.5v62.051h1V373.5h-1zm62.59.5h62.09v-1H1243v1zm-.5-.5v62.051h1V373.5h-1zm62.59.5h62.09v-1h-62.09v1zm-.5-.5v62.051h1V373.5h-1zm62.59.5h62.09v-1h-62.09v1zm-.5-.5v62.051h1V373.5h-1zm62.59.5h62.09v-1h-62.09v1zm-.5-.5v62.051h1V373.5h-1zm62.59.5h62.09v-1h-62.09v1zm-.5-.5v62.051h1V373.5h-1zm62.59.5h62.09v-1h-62.09v1zm-.5-.5v62.051h1V373.5h-1zm62.59.5h62.09v-1h-62.09v1zm-.5-.5v62.051h1V373.5h-1zm62.59.5h62.09v-1h-62.09v1zm-.5-.5v62.051h1V373.5h-1zm62.59.5h62.09v-1h-62.09v1zm-.5-.5v62.051h1V373.5h-1zm62.09 0v62.051h1V373.5h-1zM63.284 435.051H1.194v1h62.09v-1zm0 1h62.09v-1h-62.09v1zm-.5-.5v62.051h1v-62.051h-1zm-62.09 0v62.051h1v-62.051h-1zm124.68.5h62.09v-1h-62.09v1zm-.5-.5v62.051h1v-62.051h-1zm62.59.5h62.09v-1h-62.09v1zm-.5-.5v62.051h1v-62.051h-1zm62.59.5h62.09v-1h-62.09v1zm-.5-.5v62.051h1v-62.051h-1zm62.59.5h62.09v-1h-62.09v1zm-.5-.5v62.051h1v-62.051h-1zm62.59.5h62.09v-1h-62.09v1zm-.5-.5v62.051h1v-62.051h-1zm62.59.5h62.09v-1h-62.09v1zm-.5-.5v62.051h1v-62.051h-1zm62.59.5h62.09v-1h-62.09v1zm-.5-.5v62.051h1v-62.051h-1zm62.59.5h62.09v-1h-62.09v1zm-.5-.5v62.051h1v-62.051h-1zm62.59.5h62.091v-1h-62.091v1zm-.5-.5v62.051h1v-62.051h-1zm62.591.5h62.09v-1h-62.09v1zm-.5-.5v62.051h1v-62.051h-1zm62.59.5h62.09v-1h-62.09v1zm-.5-.5v62.051h1v-62.051h-1zm62.59.5h62.09v-1h-62.09v1zm-.5-.5v62.051h1v-62.051h-1zm62.59.5h62.09v-1h-62.09v1zm-.5-.5v62.051h1v-62.051h-1zm62.59.5h62.09v-1h-62.09v1zm-.5-.5v62.051h1v-62.051h-1zm62.59.5h62.085v-1h-62.085v1zm-.5-.5v62.051h1v-62.051h-1zm62.585.5h62.1v-1h-62.1v1zm-.5-.5v62.051h1v-62.051h-1zm62.6.5h62.09v-1h-62.09v1zm-.5-.5v62.051h1v-62.051h-1zm62.59.5H1243v-1h-62.09v1zm-.5-.5v62.051h1v-62.051h-1zm62.59.5h62.09v-1H1243v1zm-.5-.5v62.051h1v-62.051h-1zm62.59.5h62.09v-1h-62.09v1zm-.5-.5v62.051h1v-62.051h-1zm62.59.5h62.09v-1h-62.09v1zm-.5-.5v62.051h1v-62.051h-1zm62.59.5h62.09v-1h-62.09v1zm-.5-.5v62.051h1v-62.051h-1zm62.59.5h62.09v-1h-62.09v1zm-.5-.5v62.051h1v-62.051h-1zm62.59.5h62.09v-1h-62.09v1zm-.5-.5v62.051h1v-62.051h-1zm62.59.5h62.09v-1h-62.09v1zm-.5-.5v62.051h1v-62.051h-1zm62.59.5h62.09v-1h-62.09v1zm-.5-.5v62.051h1v-62.051h-1zm62.59.5h62.09v-1h-62.09v1zm-.5-.5v62.051h1v-62.051h-1zm62.09 0v62.051h1v-62.051h-1zM63.284 497.102H1.194v1h62.09v-1zm0 1h62.09v-1h-62.09v1zm-.5-.5v62.051h1v-62.051h-1zm-62.09 0v62.051h1v-62.051h-1zm124.68.5h62.09v-1h-62.09v1zm-.5-.5v62.051h1v-62.051h-1zm62.59.5h62.09v-1h-62.09v1zm-.5-.5v62.051h1v-62.051h-1zm62.59.5h62.09v-1h-62.09v1zm-.5-.5v62.051h1v-62.051h-1zm62.59.5h62.09v-1h-62.09v1zm-.5-.5v62.051h1v-62.051h-1zm62.59.5h62.09v-1h-62.09v1zm-.5-.5v62.051h1v-62.051h-1zm62.59.5h62.09v-1h-62.09v1zm-.5-.5v62.051h1v-62.051h-1zm62.59.5h62.09v-1h-62.09v1zm-.5-.5v62.051h1v-62.051h-1zm62.59.5h62.09v-1h-62.09v1zm-.5-.5v62.051h1v-62.051h-1zm62.59.5h62.091v-1h-62.091v1zm-.5-.5v62.051h1v-62.051h-1zm62.591.5h62.09v-1h-62.09v1zm-.5-.5v62.051h1v-62.051h-1zm62.59.5h62.09v-1h-62.09v1zm-.5-.5v62.051h1v-62.051h-1zm62.59.5h62.09v-1h-62.09v1zm-.5-.5v62.051h1v-62.051h-1zm62.59.5h62.09v-1h-62.09v1zm-.5-.5v62.051h1v-62.051h-1zm62.59.5h62.09v-1h-62.09v1zm-.5-.5v62.051h1v-62.051h-1zm62.59.5h62.085v-1h-62.085v1zm-.5-.5v62.051h1v-62.051h-1zm62.585.5h62.1v-1h-62.1v1zm-.5-.5v62.051h1v-62.051h-1zm62.6.5h62.09v-1h-62.09v1zm-.5-.5v62.051h1v-62.051h-1zm62.59.5H1243v-1h-62.09v1zm-.5-.5v62.051h1v-62.051h-1zm62.59.5h62.09v-1H1243v1zm-.5-.5v62.051h1v-62.051h-1zm62.59.5h62.09v-1h-62.09v1zm-.5-.5v62.051h1v-62.051h-1zm62.59.5h62.09v-1h-62.09v1zm-.5-.5v62.051h1v-62.051h-1zm62.59.5h62.09v-1h-62.09v1zm-.5-.5v62.051h1v-62.051h-1zm62.59.5h62.09v-1h-62.09v1zm-.5-.5v62.051h1v-62.051h-1zm62.59.5h62.09v-1h-62.09v1zm-.5-.5v62.051h1v-62.051h-1zm62.59.5h62.09v-1h-62.09v1zm-.5-.5v62.051h1v-62.051h-1zm62.59.5h62.09v-1h-62.09v1zm-.5-.5v62.051h1v-62.051h-1zm62.59.5h62.09v-1h-62.09v1zm-.5-.5v62.051h1v-62.051h-1zm62.09 0v62.051h1v-62.051h-1zM63.284 559.153H1.194v1h62.09v-1zm0 1h62.09v-1h-62.09v1zm-.5-.5v62.052h1v-62.052h-1zm-62.09 0v62.052h1v-62.052h-1zm124.68.5h62.09v-1h-62.09v1zm-.5-.5v62.052h1v-62.052h-1zm62.59.5h62.09v-1h-62.09v1zm-.5-.5v62.052h1v-62.052h-1zm62.59.5h62.09v-1h-62.09v1zm-.5-.5v62.052h1v-62.052h-1zm62.59.5h62.09v-1h-62.09v1zm-.5-.5v62.052h1v-62.052h-1zm62.59.5h62.09v-1h-62.09v1zm-.5-.5v62.052h1v-62.052h-1zm62.59.5h62.09v-1h-62.09v1zm-.5-.5v62.052h1v-62.052h-1zm62.59.5h62.09v-1h-62.09v1zm-.5-.5v62.052h1v-62.052h-1zm62.59.5h62.09v-1h-62.09v1zm-.5-.5v62.052h1v-62.052h-1zm62.59.5h62.091v-1h-62.091v1zm-.5-.5v62.052h1v-62.052h-1zm62.591.5h62.09v-1h-62.09v1zm-.5-.5v62.052h1v-62.052h-1zm62.59.5h62.09v-1h-62.09v1zm-.5-.5v62.052h1v-62.052h-1zm62.59.5h62.09v-1h-62.09v1zm-.5-.5v62.052h1v-62.052h-1zm62.59.5h62.09v-1h-62.09v1zm-.5-.5v62.052h1v-62.052h-1zm62.59.5h62.09v-1h-62.09v1zm-.5-.5v62.052h1v-62.052h-1zm62.59.5h62.085v-1h-62.085v1zm-.5-.5v62.052h1v-62.052h-1zm62.585.5h62.1v-1h-62.1v1zm-.5-.5v62.052h1v-62.052h-1zm62.6.5h62.09v-1h-62.09v1zm-.5-.5v62.052h1v-62.052h-1zm62.59.5H1243v-1h-62.09v1zm-.5-.5v62.052h1v-62.052h-1zm62.59.5h62.09v-1H1243v1zm-.5-.5v62.052h1v-62.052h-1zm62.59.5h62.09v-1h-62.09v1zm-.5-.5v62.052h1v-62.052h-1zm62.59.5h62.09v-1h-62.09v1zm-.5-.5v62.052h1v-62.052h-1zm62.59.5h62.09v-1h-62.09v1zm-.5-.5v62.052h1v-62.052h-1zm62.59.5h62.09v-1h-62.09v1zm-.5-.5v62.052h1v-62.052h-1zm62.59.5h62.09v-1h-62.09v1zm-.5-.5v62.052h1v-62.052h-1zm62.59.5h62.09v-1h-62.09v1zm-.5-.5v62.052h1v-62.052h-1zm62.59.5h62.09v-1h-62.09v1zm-.5-.5v62.052h1v-62.052h-1zm62.59.5h62.09v-1h-62.09v1zm-.5-.5v62.052h1v-62.052h-1zm62.09 0v62.052h1v-62.052h-1zM63.284 621.205H1.194v1h62.09v-1zm0 1h62.09v-1h-62.09v1zm-.5-.5v62.051h1v-62.051h-1zm-62.09 0v62.051h1v-62.051h-1zm124.68.5h62.09v-1h-62.09v1zm-.5-.5v62.051h1v-62.051h-1zm62.59.5h62.09v-1h-62.09v1zm-.5-.5v62.051h1v-62.051h-1zm62.59.5h62.09v-1h-62.09v1zm-.5-.5v62.051h1v-62.051h-1zm62.59.5h62.09v-1h-62.09v1zm-.5-.5v62.051h1v-62.051h-1zm62.59.5h62.09v-1h-62.09v1zm-.5-.5v62.051h1v-62.051h-1zm62.59.5h62.09v-1h-62.09v1zm-.5-.5v62.051h1v-62.051h-1zm62.59.5h62.09v-1h-62.09v1zm-.5-.5v62.051h1v-62.051h-1zm62.59.5h62.09v-1h-62.09v1zm-.5-.5v62.051h1v-62.051h-1zm62.59.5h62.091v-1h-62.091v1zm-.5-.5v62.051h1v-62.051h-1zm62.591.5h62.09v-1h-62.09v1zm-.5-.5v62.051h1v-62.051h-1zm62.59.5h62.09v-1h-62.09v1zm-.5-.5v62.051h1v-62.051h-1zm62.59.5h62.09v-1h-62.09v1zm-.5-.5v62.051h1v-62.051h-1zm62.59.5h62.09v-1h-62.09v1zm-.5-.5v62.051h1v-62.051h-1zm62.59.5h62.09v-1h-62.09v1zm-.5-.5v62.051h1v-62.051h-1zm62.59.5h62.085v-1h-62.085v1zm-.5-.5v62.051h1v-62.051h-1zm62.585.5h62.1v-1h-62.1v1zm-.5-.5v62.051h1v-62.051h-1zm62.6.5h62.09v-1h-62.09v1zm-.5-.5v62.051h1v-62.051h-1zm62.59.5H1243v-1h-62.09v1zm-.5-.5v62.051h1v-62.051h-1zm62.59.5h62.09v-1H1243v1zm-.5-.5v62.051h1v-62.051h-1zm62.59.5h62.09v-1h-62.09v1zm-.5-.5v62.051h1v-62.051h-1zm62.59.5h62.09v-1h-62.09v1zm-.5-.5v62.051h1v-62.051h-1zm62.59.5h62.09v-1h-62.09v1zm-.5-.5v62.051h1v-62.051h-1zm62.59.5h62.09v-1h-62.09v1zm-.5-.5v62.051h1v-62.051h-1zm62.59.5h62.09v-1h-62.09v1zm-.5-.5v62.051h1v-62.051h-1zm62.59.5h62.09v-1h-62.09v1zm-.5-.5v62.051h1v-62.051h-1zm62.59.5h62.09v-1h-62.09v1zm-.5-.5v62.051h1v-62.051h-1zm62.59.5h62.09v-1h-62.09v1zm-.5-.5v62.051h1v-62.051h-1zm62.09 0v62.051h1v-62.051h-1zM63.284 683.256H1.194v1h62.09v-1zm0 1h62.09v-1h-62.09v1zm-.5-.5v62.051h1v-62.051h-1zm-62.09 0v62.051h1v-62.051h-1zm.5 62.551h62.09v-1H1.194v1zm124.18-62.051h62.09v-1h-62.09v1zm-.5-.5v62.051h1v-62.051h-1zm62.59.5h62.09v-1h-62.09v1zm-.5-.5v62.051h1v-62.051h-1zm62.59.5h62.09v-1h-62.09v1zm-.5-.5v62.051h1v-62.051h-1zm62.59.5h62.09v-1h-62.09v1zm-.5-.5v62.051h1v-62.051h-1zm62.59.5h62.09v-1h-62.09v1zm-.5-.5v62.051h1v-62.051h-1zm62.59.5h62.09v-1h-62.09v1zm-.5-.5v62.051h1v-62.051h-1zm62.59.5h62.09v-1h-62.09v1zm-.5-.5v62.051h1v-62.051h-1zm62.59.5h62.09v-1h-62.09v1zm-.5-.5v62.051h1v-62.051h-1zm62.59.5h62.091v-1h-62.091v1zm-.5-.5v62.051h1v-62.051h-1zm62.591.5h62.09v-1h-62.09v1zm-.5-.5v62.051h1v-62.051h-1zm62.59.5h62.09v-1h-62.09v1zm-.5-.5v62.051h1v-62.051h-1zm62.59.5h62.09v-1h-62.09v1zm-.5-.5v62.051h1v-62.051h-1zm62.59.5h62.09v-1h-62.09v1zm-.5-.5v62.051h1v-62.051h-1zm62.59.5h62.09v-1h-62.09v1zm-.5-.5v62.051h1v-62.051h-1zm62.59.5h62.085v-1h-62.085v1zm-.5-.5v62.051h1v-62.051h-1zm62.585.5h62.1v-1h-62.1v1zm-.5-.5v62.051h1v-62.051h-1zm62.6.5h62.09v-1h-62.09v1zm-.5-.5v62.051h1v-62.051h-1zm62.59.5H1243v-1h-62.09v1zm-.5-.5v62.051h1v-62.051h-1zm62.59.5h62.09v-1H1243v1zm-.5-.5v62.051h1v-62.051h-1zm62.59.5h62.09v-1h-62.09v1zm-.5-.5v62.051h1v-62.051h-1zm62.59.5h62.09v-1h-62.09v1zm-.5-.5v62.051h1v-62.051h-1zm62.59.5h62.09v-1h-62.09v1zm-.5-.5v62.051h1v-62.051h-1zm62.59.5h62.09v-1h-62.09v1zm-.5-.5v62.051h1v-62.051h-1zm62.59.5h62.09v-1h-62.09v1zm-.5-.5v62.051h1v-62.051h-1zm62.59.5h62.09v-1h-62.09v1zm-.5-.5v62.051h1v-62.051h-1zm62.59.5h62.09v-1h-62.09v1zm-.5-.5v62.051h1v-62.051h-1zm62.59.5h62.09v-1h-62.09v1zm-.5-.5v62.051h1v-62.051h-1zm62.09 0v62.051h1v-62.051h-1zm.5 61.551h-62.09v1h62.09v-1zm-1738.526 1h62.09v-1h-62.09v1zm62.09 0h62.09v-1h-62.09v1zm62.09 0h62.09v-1h-62.09v1zm62.09 0h62.09v-1h-62.09v1zm62.09 0h62.09v-1h-62.09v1zm62.09 0h62.09v-1h-62.09v1zm62.09 0h62.09v-1h-62.09v1zm62.09 0h62.09v-1h-62.09v1zm62.09 0h62.09v-1h-62.09v1zm62.09 0h62.091v-1h-62.091v1zm62.091 0h62.09v-1h-62.09v1zm62.09 0h62.09v-1h-62.09v1zm62.09 0h62.09v-1h-62.09v1zm62.09 0h62.09v-1h-62.09v1zm62.09 0h62.09v-1h-62.09v1zm62.09 0h62.085v-1h-62.085v1zm62.085 0h62.1v-1h-62.1v1zm62.1 0h62.09v-1h-62.09v1zm62.09 0H1243v-1h-62.09v1zm62.09 0h62.09v-1H1243v1zm62.09 0h62.09v-1h-62.09v1zm62.09 0h62.09v-1h-62.09v1zm62.09 0h62.09v-1h-62.09v1zm62.09 0h62.09v-1h-62.09v1zm62.09 0h62.09v-1h-62.09v1zm62.09 0h62.09v-1h-62.09v1zm62.09 0h62.09v-1h-62.09v1z" mask="url(#d)"/></g></g><defs><clipPath id="a"><path fill="#fff" d="M0 0h1803v747H0z"/></clipPath><clipPath id="b"><path fill="#fff" d="M0 0h1803v747H0z"/></clipPath><radialGradient id="c" cx="0" cy="0" r="1" gradientTransform="rotate(95.144 424.9 440.274) scale(926.113 668.207)" gradientUnits="userSpaceOnUse"><stop stop-color="#77EBCE"/><stop offset=".21" stop-color="#F8A4FF" stop-opacity=".861"/><stop offset=".42" stop-color="#ABADF2" stop-opacity=".63"/><stop offset="1" stop-color="#EBFAF9" stop-opacity=".15"/></radialGradient></defs></svg>